<svg width="58" height="52" viewBox="0 0 58 52" fill="none" xmlns="http://www.w3.org/2000/svg">
<g clip-path="url(#clip0_1_12)" filter="url(#filter0_d_1_12)">
<path d="M29 2.00012C42.2548 2.00012 52.9999 12.7452 52.9999 25.9997C52.9999 39.2548 42.2548 50.0003 29 50.0003C15.7452 50.0003 5.00001 39.2548 5.00001 25.9997C5.00001 12.7452 15.7451 2.00012 29 2.00012Z" fill="black" fill-opacity="0.01" stroke="white" stroke-width="2"/>
<g clip-path="url(#clip1_1_12)">
<path d="M40.9765 21.0561C40.9203 19.7809 40.7141 18.9042 40.4187 18.1445C40.1139 17.3381 39.6451 16.6162 39.0308 16.016C38.4307 15.4065 37.704 14.9329 36.9069 14.6329C36.1429 14.3375 35.2707 14.1313 33.9955 14.0751C32.7108 14.0141 32.3029 14 29.0445 14C25.786 14 25.3782 14.0141 24.0982 14.0703C22.823 14.1266 21.9463 14.333 21.1868 14.6282C20.3803 14.9329 19.6583 15.4018 19.0582 16.016C18.4487 16.6162 17.9753 17.3429 17.6751 18.1399C17.3797 18.9042 17.1735 19.7761 17.1172 21.0513C17.0563 22.336 17.0421 22.7439 17.0421 26.0023C17.0421 29.2608 17.0563 29.6686 17.1125 30.9486C17.1687 32.2238 17.3751 33.1005 17.6705 33.8602C17.9753 34.6666 18.4487 35.3885 19.0582 35.9887C19.6583 36.5982 20.385 37.0718 21.1821 37.3718C21.9463 37.6672 22.8182 37.8734 24.0936 37.9296C25.3734 37.986 25.7815 37.9999 29.0399 37.9999C32.2984 37.9999 32.7062 37.986 33.9862 37.9296C35.2614 37.8734 36.1381 37.6672 36.8976 37.3718C38.5105 36.7482 39.7857 35.4729 40.4093 33.8602C40.7045 33.096 40.9109 32.2238 40.9672 30.9486C41.0234 29.6686 41.0375 29.2608 41.0375 26.0023C41.0375 22.7439 41.0327 22.336 40.9765 21.0561ZM38.8153 30.8549C38.7636 32.027 38.5667 32.6599 38.4026 33.0819C37.9994 34.1274 37.1695 34.9572 36.124 35.3605C35.702 35.5246 35.0645 35.7215 33.897 35.7729C32.6311 35.8293 32.2515 35.8433 29.0493 35.8433C25.847 35.8433 25.4626 35.8293 24.2013 35.7729C23.0292 35.7215 22.3963 35.5246 21.9743 35.3605C21.454 35.1682 20.9804 34.8634 20.596 34.4649C20.1975 34.0758 19.8927 33.6069 19.7004 33.0866C19.5363 32.6647 19.3395 32.027 19.288 30.8596C19.2316 29.5937 19.2177 29.2139 19.2177 26.0117C19.2177 22.8095 19.2316 22.425 19.288 21.1639C19.3395 19.9918 19.5363 19.3589 19.7004 18.9369C19.8927 18.4165 20.1975 17.943 20.6008 17.5584C20.9898 17.1599 21.4586 16.8552 21.9791 16.6631C22.401 16.499 23.0387 16.3021 24.2061 16.2504C25.472 16.1942 25.8518 16.1801 29.0538 16.1801C32.2608 16.1801 32.6405 16.1942 33.9018 16.2504C35.0739 16.3021 35.7068 16.499 36.1288 16.6631C36.6491 16.8552 37.1227 17.1599 37.5071 17.5584C37.9056 17.9476 38.2103 18.4165 38.4026 18.9369C38.5667 19.3589 38.7636 19.9964 38.8153 21.1639C38.8715 22.4298 38.8856 22.8095 38.8856 26.0117C38.8856 29.2139 38.8715 29.589 38.8153 30.8549Z" fill="white"/>
<path d="M29.0445 19.8372C25.6408 19.8372 22.8792 22.5986 22.8792 26.0024C22.8792 29.4063 25.6408 32.1677 29.0445 32.1677C32.4483 32.1677 35.2097 29.4063 35.2097 26.0024C35.2097 22.5986 32.4483 19.8372 29.0445 19.8372ZM29.0445 30.0017C26.8363 30.0017 25.0452 28.2107 25.0452 26.0024C25.0452 23.7941 26.8363 22.0032 29.0445 22.0032C31.2528 22.0032 33.0437 23.7941 33.0437 26.0024C33.0437 28.2107 31.2528 30.0017 29.0445 30.0017Z" fill="white"/>
<path d="M36.893 19.5931C36.893 20.388 36.2485 21.0324 35.4535 21.0324C34.6587 21.0324 34.0142 20.388 34.0142 19.5931C34.0142 18.7981 34.6587 18.1538 35.4535 18.1538C36.2485 18.1538 36.893 18.7981 36.893 19.5931Z" fill="white"/>
</g>
</g>
<defs>
<filter id="filter0_d_1_12" x="-1" y="0" width="60" height="60" filterUnits="userSpaceOnUse" color-interpolation-filters="sRGB">
<feFlood flood-opacity="0" result="BackgroundImageFix"/>
<feColorMatrix in="SourceAlpha" type="matrix" values="0 0 0 0 0 0 0 0 0 0 0 0 0 0 0 0 0 0 127 0" result="hardAlpha"/>
<feOffset dy="4"/>
<feGaussianBlur stdDeviation="2"/>
<feComposite in2="hardAlpha" operator="out"/>
<feColorMatrix type="matrix" values="0 0 0 0 0 0 0 0 0 0 0 0 0 0 0 0 0 0 0.25 0"/>
<feBlend mode="normal" in2="BackgroundImageFix" result="effect1_dropShadow_1_12"/>
<feBlend mode="normal" in="SourceGraphic" in2="effect1_dropShadow_1_12" result="shape"/>
</filter>
<clipPath id="clip0_1_12">
<rect width="52" height="52" fill="white" transform="translate(3)"/>
</clipPath>
<clipPath id="clip1_1_12">
<rect width="24" height="24" fill="white" transform="translate(17 14)"/>
</clipPath>
</defs>
</svg>
